{
  "accessors": [
    {
      "bufferView": 2,
      "componentType": 5126,
      "count": 29051,
      "max": [
        0.2655077874660492,
        0.3890489935874939,
        0.3216148316860199
      ],
      "min": [
        -0.2632553279399872,
        -0.39033564925193787,
        -0.31881827116012573
      ],
      "type": "VEC3"
    },
    {
      "bufferView": 2,
      "byteOffset": 348612,
      "componentType": 5126,
      "count": 29051,
      "max": [
        0.9999132752418518,
        0.9999895095825195,
        0.9999993443489075
      ],
      "min": [
        -0.9999959468841553,
        -0.9999998211860657,
        -0.999848484992981
      ],
      "type": "VEC3"
    },
    {
      "bufferView": 1,
      "componentType": 5126,
      "count": 29051,
      "max": [
        0.9968441724777222,
        0.9998769760131836
      ],
      "min": [
        0.0002797989291138947,
        2.86102294921875e-05
      ],
      "type": "VEC2"
    },
    {
      "bufferView": 0,
      "componentType": 5125,
      "count": 150000,
      "type": "SCALAR"
    }
  ],
  "asset": {
    "extras": {
      "author": "ᗰOᑎKEY ᗪ. ᒪᑌᖴᖴY (https://sketchfab.com/KingOfThePirates)",
      "license": "SKETCHFAB Standard (https://sketchfab.com/licenses)",
      "source": "https://sketchfab.com/3d-models/luffy-1610e7487ecc42b789cbff24ccd161dd",
      "title": "Luffy"
    },
    "generator": "Sketchfab-16.16.0",
    "version": "2.0"
  },
  "bufferViews": [
    {
      "buffer": 0,
      "byteLength": 600000,
      "name": "floatBufferViews",
      "target": 34963
    },
    {
      "buffer": 0,
      "byteLength": 232408,
      "byteOffset": 600000,
      "byteStride": 8,
      "name": "floatBufferViews",
      "target": 34962
    },
    {
      "buffer": 0,
      "byteLength": 697224,
      "byteOffset": 832408,
      "byteStride": 12,
      "name": "floatBufferViews",
      "target": 34962
    }
  ],
  "buffers": [
    {
      "byteLength": 1529632,
      "uri": "scene.bin"
    }
  ],
  "extensionsUsed": [
    "KHR_materials_unlit"
  ],
  "images": [
    {
      "uri": "textures/tripo_mat_a6d27221-4ee6-4365-8586-512ff279a7d1_baseColor.jpeg"
    }
  ],
  "materials": [
    {
      "extensions": {
        "KHR_materials_unlit": {}
      },
      "name": "tripo_mat_a6d27221-4ee6-4365-8586-512ff279a7d1",
      "pbrMetallicRoughness": {
        "baseColorFactor": [
          0.8183139534883721,
          0.8183139534883721,
          0.8183139534883721,
          1.0
        ],
        "baseColorTexture": {
          "index": 0
        },
        "metallicFactor": 0.0
      }
    }
  ],
  "meshes": [
    {
      "name": "Object_0",
      "primitives": [
        {
          "attributes": {
            "NORMAL": 1,
            "POSITION": 0,
            "TEXCOORD_0": 2
          },
          "indices": 3,
          "material": 0,
          "mode": 4
        }
      ]
    }
  ],
  "nodes": [
    {
      "children": [
        1
      ],
      "matrix": [
        1.0,
        0.0,
        0.0,
        0.0,
        0.0,
        2.220446049250313e-16,
        -1.0,
        0.0,
        0.0,
        1.0,
        2.220446049250313e-16,
        0.0,
        0.0,
        0.0,
        0.0,
        1.0
      ],
      "name": "Sketchfab_model"
    },
    {
      "children": [
        2
      ],
      "name": "root"
    },
    {
      "children": [
        3
      ],
      "matrix": [
        1.0,
        0.0,
        0.0,
        0.0,
        0.0,
        2.220446049250313e-16,
        1.0,
        0.0,
        0.0,
        -1.0,
        2.220446049250313e-16,
        0.0,
        0.0,
        0.0,
        0.0,
        1.0
      ],
      "name": "GLTF_SceneRootNode"
    },
    {
      "children": [
        4
      ],
      "name": "tripo_node_a6d27221-4ee6-4365-8586-512ff279a7d1_0"
    },
    {
      "mesh": 0,
      "name": "Object_4"
    }
  ],
  "samplers": [
    {
      "magFilter": 9729,
      "minFilter": 9987,
      "wrapS": 10497,
      "wrapT": 10497
    }
  ],
  "scene": 0,
  "scenes": [
    {
      "name": "Sketchfab_Scene",
      "nodes": [
        0
      ]
    }
  ],
  "textures": [
    {
      "sampler": 0,
      "source": 0
    }
  ]
}
